<svg xmlns="http://www.w3.org/2000/svg" viewBox="0 0 1138 67" fill="none"><path d="m44.768 57.655 4.716-8.054 4.721 8.06c3.449 5.863 9.702 9.333 16.366 9.333h27.314c.599 0 1.088-.5 1.088-1.112V1.112c0-.611-.49-1.112-1.088-1.112H82.031c-.598 0-1.088.5-1.088 1.112v49.751H72.65c-.707 0-1.545-.167-2.372-1.368l-11.78-20.086V1.112C58.498.501 58.008 0 57.41 0H41.554c-.598 0-1.088.5-1.088 1.112V29.41l-11.78 20.086c-.828 1.201-1.66 1.368-2.372 1.368h-8.295V1.113A1.102 1.102 0 0 0 16.932 0H1.088C.49 0 0 .5 0 1.112v64.77c0 .612.49 1.112 1.088 1.112h27.314c6.669 0 12.915-3.467 16.366-9.339ZM129.361 0h-15.854a1.1 1.1 0 0 0-1.088 1.112v64.77a1.1 1.1 0 0 0 1.088 1.112h15.854a1.1 1.1 0 0 0 1.088-1.112V1.112A1.1 1.1 0 0 0 129.361 0ZM238.13 66.994c.598 0 1.088-.5 1.088-1.112V52.037c0-.612-.49-1.113-1.088-1.113h-73.514c-1.383 0-2.697-1.004-2.697-2.503V1.112c0-.611-.49-1.112-1.088-1.112h-15.855c-.598 0-1.088.5-1.088 1.112v45.53c0 11.554 9.666 20.352 20.718 20.352h73.524Zm109.857-46.641C347.987 8.878 338.241 0 327.264 0h-73.513c-.599 0-1.088.5-1.088 1.112v64.77c0 .612.489 1.112 1.088 1.112h73.513c11.012 0 20.723-8.835 20.723-20.353V20.353Zm-18.025 28.074c0 1.495-1.314 2.503-2.698 2.503h-56.576V16.07h56.576c1.345 0 2.692 1.057 2.692 2.503l.006 29.854Zm125.771 18.567c.598 0 1.088-.5 1.088-1.112V52.037c0-.612-.49-1.113-1.088-1.113h-73.579c-1.383 0-2.697-1.004-2.697-2.503v-6.864h67.269c.598 0 1.088-.5 1.088-1.112V26.539c0-.612-.49-1.113-1.088-1.113h-67.269v-6.864c0-1.45 1.348-2.503 2.692-2.503h73.579c.598 0 1.087-.5 1.087-1.113V1.112c0-.611-.489-1.112-1.087-1.112h-73.579c-11.02 0-20.723 8.839-20.723 20.353v26.294C361.426 58.2 371.092 67 382.143 67l73.59-.006Zm32.623-20.147h49.104l9.545 19.536c.185.378.56.617.974.617h17.638c.811 0 1.333-.868.974-1.608l-10.584-21.699c5.927-3.605 9.648-10.12 9.648-17.199v-6.14C565.655 8.924 555.951 0 544.998 0h-73.579c-.598 0-1.087.5-1.087 1.112v64.77c0 .612.489 1.112 1.087 1.112h15.855c.598 0 1.088-.5 1.088-1.112l-.006-19.035Zm0-30.716h56.642c1.328 0 2.627 1.014 2.627 2.442v9.645c0 1.455-1.253 2.503-2.627 2.503h-56.642v-14.59Z" fill="#fff"/><g transform="translate(603 0)"><path d="M187.956 0H134.02c-10.969 0-20.719 8.893-20.719 20.353v26.294C113.301 58.15 123.014 67 134.02 67h53.936c11.011 0 20.718-8.838 20.718-20.353V20.353C208.674 8.883 198.931 0 187.956 0Zm2.692 48.427c0 1.491-1.31 2.503-2.692 2.503H134.02c-1.376 0-2.693-1.023-2.693-2.503V18.573c0-1.434 1.355-2.503 2.693-2.503h53.936c1.339 0 2.692 1.061 2.692 2.503v29.854ZM81.846 50.869H73.55c-.707 0-1.545-.167-2.372-1.369L59.397 29.414V1.118c0-.612-.489-1.113-1.087-1.113H42.454c-.598 0-1.088.501-1.088 1.113v28.296L29.585 49.5c-.827 1.202-1.66 1.369-2.372 1.369h-8.295V1.118c0-.612-.49-1.113-1.088-1.113H1.975C1.376.005.887.506.887 1.118v64.77c0 .611.49 1.112 1.088 1.112H29.29c6.637 0 12.938-3.498 16.372-9.34l4.716-8.054 4.721 8.06C58.55 63.53 64.803 67 71.468 67h27.317c.598 0 1.087-.5 1.087-1.113V1.117c0-.61-.489-1.112-1.087-1.112H82.928c-.598 0-1.088.501-1.088 1.113l.006 49.75Zm267.103-2.442V1.112c0-.611-.49-1.112-1.088-1.112h-15.856c-.598 0-1.087.5-1.087 1.112v45.53c0 11.554 9.665 20.352 20.718 20.352h73.518c.598 0 1.088-.5 1.088-1.112V52.037c0-.612-.49-1.113-1.088-1.113h-73.518c-1.391 0-2.687-.984-2.687-2.497ZM514.277 0h-73.518c-.598 0-1.088.5-1.088 1.112v64.77c0 .612.49 1.112 1.088 1.112h73.518c11.013 0 20.724-8.835 20.724-20.353V20.348C535.001 8.825 525.275 0 514.277 0Zm2.692 48.427c0 1.495-1.314 2.503-2.698 2.503h-56.579V16.07h56.579c1.345 0 2.693 1.057 2.693 2.503l.005 29.854ZM317.504 26.494v-6.14C317.504 8.924 307.799 0 296.846 0h-73.583c-.599 0-1.088.5-1.088 1.112v64.77c0 .612.489 1.112 1.088 1.112h15.855c.598 0 1.088-.5 1.088-1.112V46.847h49.106l9.546 19.536c.185.378.561.617.974.617h17.64c.81 0 1.332-.868.973-1.608L307.86 43.693c5.949-3.618 9.644-10.07 9.644-17.199Zm-18.031 1.724c0 1.455-1.253 2.503-2.627 2.503h-56.645V16.137h56.645c1.328 0 2.627 1.014 2.627 2.442v9.64Z" fill="#fff"/></g></svg>
